<?xml version="1.0" encoding="utf-8"?>
<!-- Generator: Adobe Illustrator 16.0.0, SVG Export Plug-In . SVG Version: 6.00 Build 0)  -->
<!DOCTYPE svg PUBLIC "-//W3C//DTD SVG 1.1//EN" "http://www.w3.org/Graphics/SVG/1.1/DTD/svg11.dtd">
<svg version="1.1" id="Layer_1" xmlns="http://www.w3.org/2000/svg" xmlns:xlink="http://www.w3.org/1999/xlink" x="0px" y="0px"
	 width="214.002px" height="57px" viewBox="0 0 214.002 57" enable-background="new 0 0 214.002 57" xml:space="preserve">
<g>
	<path fill-rule="evenodd" clip-rule="evenodd" fill="#E20512" d="M214.361,36.525c0-2.04-1.63-3.68-3.67-3.68h-0.02
		c-2.04,0-3.71,1.64-3.71,3.68c0,2.08,1.67,3.7,3.71,3.7C212.731,40.225,214.361,38.604,214.361,36.525z M213.681,36.545
		c0,1.73-1.33,3.12-2.99,3.11c-1.67,0-3.01-1.38-3.01-3.13c0-1.72,1.34-3.11,2.99-3.11h0.02
		C212.351,33.415,213.681,34.805,213.681,36.545z"/>
	<path fill-rule="evenodd" clip-rule="evenodd" fill="#E20512" d="M35.561,37.615v5.81h7.31c1.97,0,4.46-0.69,4.46-2.9
		c0-2.21-2.49-2.91-4.46-2.91H35.561z M35.561,48.205v7.26c0,0.86-0.7,1.59-1.61,1.59h-3.24c-0.87,0-1.61-0.73-1.61-1.59v-21.03
		c0-0.9,0.7-1.59,1.58-1.59h14.16c5.13,0,8.96,2.9,8.96,7.68c0,3.74-2.92,5.46-6.47,6.16c1.44,0.51,2.5,1.73,3.9,3.9l3.13,4.88
		c0.56,0.9,0.32,1.59-0.6,1.59h-4.11c-0.88,0-2.07-0.69-2.63-1.59l-2.92-4.5c-0.88-1.34-2.14-2.76-4.36-2.76H35.561z"/>
	<path fill="#E20512" d="M102.131,48.275c-0.87,0-1.61-0.73-1.61-1.6v-1.31c0-0.86,0.74-1.59,1.61-1.59h8.61
		c0.88,0,1.62,0.73,1.62,1.59v1.87c0,6.23-3.8,9.82-11.35,9.82h-3.86c-7.45,0-11.77-3.84-11.77-12.24c0-8.41,4.32-12.25,12.71-12.25
		h3.83c4.78,0,9.87,2.52,9.87,6.23c0,1.56-1.29,1.87-1.75,1.87h-2.04c-0.98,0-1.72-0.49-2.32-1.6c-0.63-1.17-2.25-1.72-4.35-1.72
		h-3.06c-5.06,0-6.43,1.83-6.43,7.47c0,5.64,1.37,7.47,5.48,7.47h3.51c3.87,0,5.13-1.59,5.17-4.01H102.131z"/>
	<path fill="#E20512" d="M129.251,52.285c3.13,0,4.54-1.59,4.54-4.91v-13.08c0-0.9,0.73-1.59,1.61-1.59h3.2
		c0.91,0,1.65,0.69,1.65,1.59v13.04c0,6.13-3.65,9.72-10.82,9.72h-3.09c-7.17,0-10.82-3.59-10.82-9.72v-13.04
		c0-0.9,0.74-1.59,1.65-1.59h3.2c0.87,0,1.61,0.69,1.61,1.59v13.08c0,3.32,1.41,4.91,4.53,4.91H129.251z"/>
	<path fill="#E20512" d="M173.411,34.435c0-0.9,0.74-1.59,1.62-1.59h3.19c0.92,0,1.66,0.69,1.66,1.59v21.03
		c0,0.86-0.74,1.59-1.66,1.59h-3.19c-0.88,0-1.62-0.69-1.62-1.55V34.435z"/>
	<path fill-rule="evenodd" clip-rule="evenodd" fill="#E20512" d="M71.771,46.435h-3.48h-2.22l1.51-5.43c0.56-2.62,4.34-2.72,4.9,0
		l1.51,5.43H71.771z M83.021,55.505l-4.32-16.09c-0.9-3.32-3.14-5.04-5.9-5.88c-1.75-0.57-3.95-0.61-5.99,0.14
		c-2.56,0.89-4.61,2.6-5.45,5.74l-4.32,16.09c-0.25,0.86,0.28,1.55,1.19,1.55h3.38c0.91,0,1.79-0.69,2.03-1.59l1.16-4.25h10.45
		l1.16,4.25c0.25,0.9,1.12,1.59,2.04,1.59h3.37C82.741,57.055,83.261,56.365,83.021,55.505z"/>
	<path fill-rule="evenodd" clip-rule="evenodd" fill="#E20512" d="M15.151,46.435h-3.48h-2.22l1.51-5.43c0.56-2.62,4.34-2.72,4.9,0
		l1.51,5.43H15.151z M26.401,55.505l-4.32-16.09c-0.89-3.32-3.13-5.04-5.89-5.88c-1.76-0.57-3.96-0.61-5.99,0.14
		c-2.56,0.89-4.61,2.6-5.46,5.74l-4.32,16.09c-0.25,0.86,0.28,1.55,1.19,1.55h3.38c0.91,0,1.79-0.69,2.04-1.59l1.16-4.25h10.45
		l1.16,4.25c0.24,0.9,1.12,1.59,2.03,1.59h3.37C26.121,57.055,26.651,56.365,26.401,55.505z"/>
	<path fill-rule="evenodd" clip-rule="evenodd" fill="#E20512" d="M157.791,46.435h-3.48h-2.22l1.51-5.43c0.56-2.62,4.35-2.72,4.9,0
		l1.51,5.43H157.791z M169.041,55.505l-4.32-16.09c-0.89-3.32-3.14-5.04-5.89-5.88c-1.76-0.57-3.96-0.61-6,0.14
		c-2.55,0.89-4.6,2.6-5.45,5.74l-4.32,16.09c-0.25,0.86,0.28,1.55,1.19,1.55h3.38c0.91,0,1.79-0.69,2.04-1.59l1.15-4.25h3.49h3.48
		h3.49l1.16,4.25c0.24,0.9,1.12,1.59,2.03,1.59h3.38C168.761,57.055,169.281,56.365,169.041,55.505z"/>
	<path fill-rule="evenodd" clip-rule="evenodd" fill="#E20512" d="M198.091,46.435h-3.48h-2.22l1.51-5.43c0.56-2.62,4.35-2.72,4.9,0
		l1.51,5.43H198.091z M209.341,55.505l-4.32-16.09c-0.89-3.32-3.13-5.04-5.89-5.88c-1.76-0.57-3.96-0.61-6,0.14
		c-2.55,0.89-4.6,2.6-5.45,5.74l-4.32,16.09c-0.24,0.86,0.28,1.55,1.19,1.55h3.38c0.91,0,1.79-0.69,2.04-1.59l1.15-4.25h3.49h3.48
		h3.49l1.16,4.25c0.24,0.9,1.12,1.59,2.03,1.59h3.38C209.061,57.055,209.591,56.365,209.341,55.505z"/>
	<path fill="#51AD31" d="M199.961,2.955c-3.19,0.89-9.86,0.28-15.83,3.3c-5.97,3.03-6.18,8.46-5.81,10.27
		c0.1,0.5,0.34,0.88,0.62,1.18c0.18-0.26,0.37-0.53,0.59-0.77c5.48-6.25,13.34-6.92,13.34-6.92c-15.22,4.63-14.81,17.34-18.05,13.72
		c-3.1-3.53-6.78-4.34-6.78-4.34s4.76,0.31,6.82,2.64c0.12,0.14,0.23,0.29,0.33,0.44l0.03-0.09c0.21-1.01,0.09-4.04-3.23-5.72
		c-3.33-1.68-7.04-1.34-8.81-1.84c-1.78-0.49-2.49-1.61-2.49-1.61s1.48,12.31,10.93,12.24c1.59-0.09,2.26-1.28,2.29-1.3
		c1.71,1.76,1.84,5.33,1.84,5.5c0,0-0.08,1.28,0.88,1.26c0.78-0.01,0.93-0.52,0.96-1.09v0.03c0,0,0.08-5.47,3.45-9.63
		c13.18,10,23.38-20.17,23.38-20.17S203.151,2.064,199.961,2.955z"/>
	<path fill-rule="evenodd" clip-rule="evenodd" fill="#E20512" d="M209.971,36.395h0.48c0.55,0,1.02-0.2,1.02-0.7
		c0-0.36-0.27-0.72-1.02-0.72c-0.21,0-0.36,0.01-0.48,0.03V36.395z M209.971,38.675h-0.66v-4.11c0.35-0.05,0.68-0.1,1.18-0.1
		c0.63,0,1.04,0.13,1.29,0.31c0.25,0.18,0.39,0.46,0.39,0.85c0,0.54-0.37,0.87-0.82,1v0.03c0.37,0.07,0.62,0.4,0.7,1
		c0.1,0.64,0.2,0.88,0.27,1.02h-0.7c-0.1-0.14-0.2-0.51-0.28-1.05c-0.1-0.53-0.37-0.72-0.9-0.72h-0.47V38.675z"/>
</g>
</svg>
